<svg xmlns="http://www.w3.org/2000/svg" width="1024" height="1024" viewBox="0 0 1024 1024">
  <title>SLATECORE Gallery</title>
  <!-- SLATECORE app icon by GENSLATE: flat Polar Night plate (nord1, nord2 rim), Snow Storm line work, one Frost or Aurora accent. No gradients or shadows. Glyph: a photo over a second print — nord14 hills, nord13 sun. The launcher crops the viewBox to the plate (100 100 824 824). -->
  <rect x="100" y="100" width="824" height="824" rx="185" fill="#3b4252"/>
  <rect x="102" y="102" width="820" height="820" rx="183" fill="none" stroke="#434c5e" stroke-width="4"/>
  <g opacity="0.4">
    <rect x="296" y="320" width="384" height="300" rx="44" transform="rotate(-8 488 470)" fill="none" stroke="#eceff4" stroke-width="36"/>
  </g>
  <rect x="344" y="404" width="384" height="300" rx="44" fill="#3b4252"/>
  <g clip-path="url(#photo)">
    <path d="M336 720L468 592Q484 576 500 592L568 660L604 624Q620 608 636 624L744 720Z" fill="#a3be8c"/>
  </g>
  <path d="M596 504a36 36 0 1 0 72 0a36 36 0 1 0 -72 0Z" fill="#ebcb8b"/>
  <rect x="344" y="404" width="384" height="300" rx="44" fill="none" stroke="#eceff4" stroke-width="40"/>
</svg>
